Coordinates
version=1
nRows=10
nColumns=22
inDegrees=yes

Units are S.I. units (second, meters, Newtons, ...)
If the header above contains a line with 'inDegrees', this indicates whether rotational values are in degrees (yes) or radians (no).

endheader
time	pelvis_tilt	pelvis_list	pelvis_rotation	pelvis_tx	pelvis_ty	pelvis_tz	hip_flexion_r	hip_adduction_r	hip_rotation_r	knee_angle_r	ankle_angle_r	subtalar_angle_r	hip_flexion_l	hip_adduction_l	hip_rotation_l	knee_angle_l	ankle_angle_l	subtalar_angle_l	lumbar_extension	lumbar_bending	lumbar_rotation
      0.01000000	      0.97168719	     -0.01353568	     -5.38695019	     -0.84915752	      0.90723952	     -0.26598690	     -5.91171324	      0.19941366	     -6.08450147	     -2.37361740	     15.49603764	     -1.42539760	      0.85012715	     -2.40482901	    -12.80321603	    -16.52462150	     16.41645645	     -2.09403056	     -4.76164054	     -2.58932854	      3.62442932
      0.02000000	      0.98858054	     -0.00896410	     -5.39008657	     -0.84918961	      0.90726922	     -0.26601510	     -5.92081761	      0.19043876	     -6.08734077	     -2.38198238	     15.45532842	     -1.45464236	      0.83818376	     -2.39600940	    -12.80864266	    -16.53210480	     16.42918371	     -2.10776325	     -4.78425421	     -2.60702023	      3.65334822
      0.03000000	      0.99127701	     -0.01245039	     -5.38308353	     -0.84918949	      0.90727802	     -0.26605954	     -5.92160449	      0.19229361	     -6.08369512	     -2.38593084	     15.45534466	     -1.45690487	      0.83599930	     -2.39645563	    -12.80949323	    -16.53099152	     16.42937082	     -2.10936802	     -4.78234380	     -2.61084037	      3.65740408
      0.04000000	      0.99962614	     -0.01850624	     -5.38853873	     -0.84923599	      0.90729623	     -0.26608232	     -5.91310471	      0.19383453	     -6.06878009	     -2.41185199	     15.45426442	     -1.47477657	      0.83229085	     -2.39876683	    -12.79803618	    -16.53596133	     16.43222874	     -2.12140993	     -4.79896429	     -2.61787362	      3.70088516
      0.05000000	      1.00325884	     -0.02119536	     -5.40111703	     -0.84924262	      0.90730552	     -0.26609960	     -5.89979599	      0.19053788	     -6.04795959	     -2.44186782	     15.46103898	     -1.50532981	      0.82540903	     -2.39679593	    -12.80505718	    -16.53276456	     16.43945501	     -2.14406568	     -4.79916740	     -2.62543787	      3.74881656
      0.06000000	      1.00376070	     -0.02454082	     -5.39343143	     -0.84923928	      0.90730970	     -0.26611981	     -5.89971884	      0.19387630	     -6.04468905	     -2.44503477	     15.46143740	     -1.50694001	      0.82589521	     -2.39934644	    -12.80615990	    -16.53175363	     16.43986561	     -2.14546181	     -4.79871362	     -2.63534792	      3.75390002
      0.07000000	      1.00580240	     -0.02696169	     -5.39413715	     -0.84925722	      0.90731342	     -0.26612534	     -5.89491996	      0.19444451	     -6.03763415	     -2.45580673	     15.46274424	     -1.51750845	      0.83134138	     -2.40055880	    -12.79790728	    -16.54367393	     16.44393069	     -2.15294399	     -4.80533096	     -2.64903107	      3.80023029
      0.08000000	      1.00693805	     -0.03020991	     -5.39149657	     -0.84922702	      0.90731394	     -0.26611049	     -5.89653301	      0.19890963	     -6.03503947	     -2.46079605	     15.46310323	     -1.51946057	      0.82915355	     -2.40477922	    -12.79717035	    -16.54545491	     16.44499130	     -2.15443517	     -4.80019271	     -2.66083644	      3.80762685
      0.09000000	      1.00785415	     -0.03265908	     -5.39612386	     -0.84922267	      0.90731113	     -0.26608419	     -5.89382378	      0.20245536	     -6.03383337	     -2.46797871	     15.46682503	     -1.53109125	      0.83325420	     -2.40726875	    -12.78985088	    -16.55681930	     16.45333936	     -2.16166542	     -4.80303132	     -2.67563009	      3.86494427
      0.10000000	      1.00849807	     -0.03556841	     -5.39751619	     -0.84918565	      0.90730661	     -0.26603651	     -5.89568214	      0.20874782	     -6.03269181	     -2.47114463	     15.46764272	     -1.53286797	      0.83046344	     -2.41255302	    -12.78856112	    -16.55947388	     16.45473806	     -2.16287217	     -4.79811378	     -2.68954882	      3.87001894
